<?xml version="1.0" encoding="UTF-8" standalone="no"?>
<svg
   width="64"
   height="64"
   version="1.1"
   id="svg6"
   sodipodi:docname="editor\icons\GodotFile.svg"
   inkscape:version="1.3.2 (091e20e, 2023-11-25)"
   xmlns:inkscape="http://www.inkscape.org/namespaces/inkscape"
   xmlns:sodipodi="http://sodipodi.sourceforge.net/DTD/sodipodi-0.dtd"
   xmlns:xlink="http://www.w3.org/1999/xlink"
   xmlns="http://www.w3.org/2000/svg"
   xmlns:svg="http://www.w3.org/2000/svg">
  <defs
     id="defs6">
    <linearGradient
       inkscape:collect="always"
       xlink:href="#linearGradient51"
       id="linearGradient1"
       gradientUnits="userSpaceOnUse"
       gradientTransform="matrix(0.32431635,0,0,0.32431635,-126.19334,-146.92407)"
       x1="455.85126"
       y1="527.87988"
       x2="528.30664"
       y2="598.77032" />
    <linearGradient
       id="linearGradient51"
       inkscape:collect="always">
      <stop
         style="stop-color:#ff1300;stop-opacity:1"
         offset="0"
         id="stop51" />
      <stop
         style="stop-color:#ff6e01;stop-opacity:1"
         offset="1"
         id="stop52" />
    </linearGradient>
  </defs>
  <sodipodi:namedview
     id="namedview6"
     pagecolor="#ffffff"
     bordercolor="#000000"
     borderopacity="0.25"
     inkscape:showpageshadow="2"
     inkscape:pageopacity="0.0"
     inkscape:pagecheckerboard="0"
     inkscape:deskcolor="#d1d1d1"
     inkscape:zoom="3.5849771"
     inkscape:cx="33.333546"
     inkscape:cy="51.046351"
     inkscape:window-width="1312"
     inkscape:window-height="449"
     inkscape:window-x="0"
     inkscape:window-y="25"
     inkscape:window-maximized="0"
     inkscape:current-layer="svg6" />
  <path
     id="path117"
     style="font-variation-settings:normal;vector-effect:none;fill:url(#linearGradient1);fill-opacity:1;stroke-width:0.234359;stroke-linecap:butt;stroke-linejoin:miter;stroke-miterlimit:4;stroke-dasharray:none;stroke-dashoffset:0;stroke-opacity:1;-inkscape-stroke:none;stop-color:#000000"
     d="m 28.199042,21.859575 -0.734883,2.322202 c -0.800503,0.346258 -1.601005,0.692466 -2.401409,1.038957 -0.849299,-0.178907 -1.700778,-0.386085 -2.561405,-0.489911 -0.135861,0.152924 -3.573395,5.440604 -3.572425,5.49524 0.158375,0.387877 0.430368,0.721517 0.636086,1.084493 l 12.503038,4.392622 12.503044,-4.392622 c 0.205716,-0.362976 0.477703,-0.696616 0.636079,-1.084493 6.14e-4,-0.05464 -3.436612,-5.342316 -3.572481,-5.49524 -0.860621,0.10383 -1.71205,0.311004 -2.561349,0.489911 -0.800404,-0.346491 -1.600906,-0.692699 -2.401403,-1.038957 L 35.93699,21.859575 Z M 20.51721,32.908159 c -0.01547,-0.0049 -0.04666,0.01829 -0.04777,0.02609 -0.150596,1.228175 -0.444932,3.685337 -0.444932,3.685337 l 0.761805,3.294066 5.763586,2.618956 5.518147,-2.063906 5.518091,2.063906 5.763591,-2.618956 0.761854,-3.294066 c 0,0 -0.294328,-2.457162 -0.444931,-3.685337 -0.0013,-0.0104 -0.05636,-0.04838 -0.05636,-0.01009 -3.773084,1.341456 -7.708834,2.640586 -11.542263,3.963752 -3.833424,-1.323166 -7.769235,-2.622296 -11.542319,-3.963752 0,-0.0096 -0.0037,-0.0143 -0.0085,-0.01602 z m 2.708673,2.797537 5.395405,1.992246 a 2.9385053,2.9385053 0 0 1 -0.140693,0.572474 2.9385053,2.9385053 0 0 1 -3.774539,1.738752 2.9385053,2.9385053 0 0 1 -1.738751,-3.77454 2.9385053,2.9385053 0 0 1 0.258578,-0.528932 z m 17.684321,0 a 2.9385053,2.9385053 0 0 1 0.258584,0.528932 2.9385053,2.9385053 0 0 1 -1.73875,3.77454 2.9385053,2.9385053 0 0 1 -3.774546,-1.738752 2.9385053,2.9385053 0 0 1 -0.140693,-0.572474 z m -21.882708,2.223055 -1.384052,1.371479 2.073454,7.270675 6.553325,2.688099 -0.35258,-5.655929 -6.214805,-2.892105 z m 26.08104,0 -0.675287,2.782219 -6.214805,2.892105 -0.35258,5.655929 6.553332,-2.688099 2.073447,-7.270675 z m -13.040492,3.744995 -4.914245,1.94493 0.298302,6.109886 4.615943,1.880586 4.615949,-1.880586 0.298295,-6.109886 z" />
</svg>
