<?xml version="1.0" encoding="UTF-8" standalone="no"?>
<svg
   width="16"
   height="16"
   version="1.1"
   id="svg2"
   sodipodi:docname="editor\icons\GodotMonochrome.svg"
   inkscape:version="1.3.2 (091e20e, 2023-11-25)"
   xmlns:inkscape="http://www.inkscape.org/namespaces/inkscape"
   xmlns:sodipodi="http://sodipodi.sourceforge.net/DTD/sodipodi-0.dtd"
   xmlns="http://www.w3.org/2000/svg"
   xmlns:svg="http://www.w3.org/2000/svg">
  <defs
     id="defs2" />
  <sodipodi:namedview
     id="namedview2"
     pagecolor="#ffffff"
     bordercolor="#000000"
     borderopacity="0.25"
     inkscape:showpageshadow="2"
     inkscape:pageopacity="0.0"
     inkscape:pagecheckerboard="0"
     inkscape:deskcolor="#d1d1d1"
     inkscape:zoom="8.5201775"
     inkscape:cx="0.76289491"
     inkscape:cy="7.0421068"
     inkscape:window-width="1312"
     inkscape:window-height="449"
     inkscape:window-x="108"
     inkscape:window-y="236"
     inkscape:window-maximized="0"
     inkscape:current-layer="svg2" />
  <path
     id="path117"
     style="font-variation-settings:normal;vector-effect:none;fill:#f9f9f9;fill-opacity:1;stroke-width:0.111484;stroke-linecap:butt;stroke-linejoin:miter;stroke-miterlimit:4;stroke-dasharray:none;stroke-dashoffset:0;stroke-opacity:1;-inkscape-stroke:none;stop-color:#000000"
     d="M 6.3139453,0.9106407 5.9643598,2.0153094 C 5.5835635,2.1800231 5.2027634,2.3447143 4.8220122,2.5095383 4.4180025,2.4244353 4.0129548,2.3258797 3.6035556,2.276491 3.5389256,2.349236 1.9036967,4.8645787 1.9041595,4.890567 1.9794955,5.0750804 2.108884,5.2337932 2.206745,5.4064603 L 8.1544232,7.4960258 14.102103,5.4064603 C 14.199963,5.2337932 14.329348,5.0750804 14.404685,4.890567 14.405216,4.86458 12.769893,2.3492348 12.705264,2.276491 12.295866,2.32588 11.890843,2.4244356 11.486831,2.5095383 11.10608,2.3447143 10.725285,2.1800231 10.344488,2.0153094 L 9.9948751,0.9106407 Z M 2.6597087,6.1664381 c -0.00739,-0.00236 -0.02219,0.00871 -0.022728,0.012424 -0.071639,0.5842419 -0.211648,1.7531095 -0.211648,1.7531095 L 2.7877175,9.4989558 5.5294466,10.744789 8.1544242,9.7629921 10.779372,10.744789 13.521105,9.4989558 13.883518,7.9319716 c 0,0 -0.140014,-1.1688676 -0.211654,-1.7531097 -7.49e-4,-0.00497 -0.0268,-0.023006 -0.0268,-0.00478 C 11.850216,6.8122096 9.9779816,7.4302018 8.1544251,8.0596317 6.3308715,7.4302018 4.4586115,6.8122096 2.6637587,6.1740802 c 0,-0.00454 -0.00144,-0.00682 -0.00384,-0.00764 z M 3.9482183,7.4972209 6.5148061,8.4449304 A 1.3978431,1.3978431 0 0 1 6.4478813,8.7172569 1.3978431,1.3978431 0 0 1 4.6523401,9.5443794 1.3978431,1.3978431 0 0 1 3.825213,7.7488348 1.3978431,1.3978431 0 0 1 3.9482212,7.4972209 Z m 8.4124097,0 A 1.3978431,1.3978431 0 0 1 12.483635,7.7488348 1.3978431,1.3978431 0 0 1 11.656511,9.5443794 1.3978431,1.3978431 0 0 1 9.8609689,8.7172569 1.3978431,1.3978431 0 0 1 9.7940441,8.4449304 Z M 1.9510539,8.5547261 1.2926618,9.2071368 2.2789988,12.665787 5.3964093,13.944513 5.2286854,11.253996 2.2723102,9.878223 Z m 12.4067141,0 -0.321232,1.3234969 -2.956373,1.375773 -0.167725,2.690517 3.117412,-1.278726 0.986336,-3.4586502 z m -6.2033448,1.7814909 -2.3376993,0.925199 0.1418998,2.906466 2.1957995,0.894593 2.1957998,-0.894593 0.141897,-2.906466 z" />
</svg>
