<?xml version="1.0" encoding="UTF-8" standalone="no"?>
<svg
   width="187"
   height="69"
   version="1.1"
   id="svg8"
   sodipodi:docname="editor\icons\Logo.svg"
   inkscape:version="1.3.2 (091e20e, 2023-11-25)"
   xmlns:inkscape="http://www.inkscape.org/namespaces/inkscape"
   xmlns:sodipodi="http://sodipodi.sourceforge.net/DTD/sodipodi-0.dtd"
   xmlns:xlink="http://www.w3.org/1999/xlink"
   xmlns="http://www.w3.org/2000/svg"
   xmlns:svg="http://www.w3.org/2000/svg">
  <defs
     id="defs8">
    <linearGradient
       inkscape:collect="always"
       xlink:href="#linearGradient51"
       id="linearGradient1"
       gradientUnits="userSpaceOnUse"
       gradientTransform="matrix(0.69692747,0,0,0.69692747,-304.65641,-360.15507)"
       x1="455.85126"
       y1="527.87988"
       x2="528.30664"
       y2="598.77032" />
    <linearGradient
       id="linearGradient51"
       inkscape:collect="always">
      <stop
         style="stop-color:#ff1300;stop-opacity:1"
         offset="0"
         id="stop51" />
      <stop
         style="stop-color:#ff6e01;stop-opacity:1"
         offset="1"
         id="stop52" />
    </linearGradient>
  </defs>
  <sodipodi:namedview
     id="namedview8"
     pagecolor="#ffffff"
     bordercolor="#000000"
     borderopacity="0.25"
     inkscape:showpageshadow="2"
     inkscape:pageopacity="0.0"
     inkscape:pagecheckerboard="0"
     inkscape:deskcolor="#d1d1d1"
     inkscape:zoom="2.0474137"
     inkscape:cx="127.96632"
     inkscape:cy="-1.2210527"
     inkscape:window-width="1312"
     inkscape:window-height="632"
     inkscape:window-x="112"
     inkscape:window-y="92"
     inkscape:window-maximized="0"
     inkscape:current-layer="svg8" />
  <path
     id="path117"
     style="font-variation-settings:normal;vector-effect:none;fill:url(#linearGradient1);fill-opacity:1;stroke-width:0.503617;stroke-linecap:butt;stroke-linejoin:miter;stroke-miterlimit:4;stroke-dasharray:none;stroke-dashoffset:0;stroke-opacity:1;-inkscape-stroke:none;stop-color:#000000"
     d="m 27.119331,2.5462178 -1.579211,4.990214 c -1.7202,0.744077 -3.440418,1.488047 -5.160404,2.232616 -1.825075,-0.384441 -3.654838,-0.829654 -5.504248,-1.052756 -0.29196,0.32861 -7.6789104,11.6913782 -7.6768204,11.8087722 0.34033,0.833527 0.92481,1.550492 1.36688,2.330494 l 26.8679534,9.439363 26.86794,-9.439363 c 0.442073,-0.780002 1.02655,-1.496967 1.366876,-2.330494 0.0019,-0.117394 -7.384977,-11.4801622 -7.676934,-11.8087722 -1.849412,0.223102 -3.679051,0.668315 -5.504127,1.052756 -1.719995,-0.744569 -3.440213,-1.488539 -5.160412,-2.232616 L 43.747502,2.5462178 Z M 10.611748,26.288668 c -0.0333,-0.01075 -0.10027,0.03932 -0.10267,0.05614 -0.32362,2.639247 -0.9561104,7.919464 -0.9561104,7.919464 l 1.6370404,7.078667 12.385446,5.627902 11.858027,-4.435147 11.857888,4.435147 12.385452,-5.627902 1.637162,-7.078667 c 0,0 -0.632486,-5.280217 -0.956121,-7.919464 -0.0037,-0.02249 -0.121076,-0.103926 -0.121076,-0.02165 -8.108019,2.882672 -16.565611,5.67438 -24.803305,8.517754 -8.237694,-2.843374 -16.695416,-5.635082 -24.803443,-8.517754 0,-0.02049 -0.007,-0.03082 -0.0183,-0.03448 z m 5.8207,6.011651 11.594245,4.281171 a 6.3145914,6.3145914 0 0 1 -0.302334,1.230204 6.3145914,6.3145914 0 0 1 -8.111156,3.736421 6.3145914,6.3145914 0 0 1 -3.736435,-8.111155 6.3145914,6.3145914 0 0 1 0.55568,-1.136641 z m 38.002052,0 A 6.3145914,6.3145914 0 0 1 54.990169,33.43696 6.3145914,6.3145914 0 0 1 51.25375,41.548115 6.3145914,6.3145914 0 0 1 43.142593,37.811694 6.3145914,6.3145914 0 0 1 42.84025,36.58149 Z m -47.0240324,4.777159 -2.9742,2.947191 4.45566,15.62404 L 22.97447,61.425197 22.216798,49.271107 8.8617176,43.05622 Z m 56.0458844,0 -1.451127,5.978742 -13.35507,6.214887 -0.757673,12.15409 14.082536,-5.776488 4.455665,-15.62404 z m -28.022871,8.047669 -10.560284,4.179486 0.641012,13.129607 9.919272,4.041219 9.919254,-4.041219 0.641021,-13.129607 z" />
  <text
     xml:space="preserve"
     style="font-style:normal;font-variant:normal;font-weight:bold;font-stretch:normal;font-size:19.3036px;font-family:Futura;-inkscape-font-specification:'Futura, Bold';font-variant-ligatures:normal;font-variant-caps:normal;font-variant-numeric:normal;font-variant-east-asian:normal;fill:#f2f2f2;stroke-width:0.723883"
     x="86.679016"
     y="60.230419"
     id="text8"><tspan
       sodipodi:role="line"
       id="tspan8"
       x="86.679016"
       y="60.230419"
       style="fill:#f2f2f2;stroke-width:0.723883">ENGINE</tspan></text>
  <text
     xml:space="preserve"
     style="font-style:normal;font-variant:normal;font-weight:bold;font-stretch:normal;font-size:30.9619px;font-family:Futura;-inkscape-font-specification:'Futura, Bold';font-variant-ligatures:normal;font-variant-caps:normal;font-variant-numeric:normal;font-variant-east-asian:normal;fill:#ffffff;stroke-width:1.16107"
     x="71.947006"
     y="36.541382"
     id="text9"><tspan
       sodipodi:role="line"
       id="tspan9"
       x="71.947006"
       y="36.541382"
       style="stroke-width:1.16107;fill:#ffffff">REDOT</tspan></text>
</svg>
