<svg xmlns="http://www.w3.org/2000/svg" width="100" height="24" stroke-linejoin="round"><path fill="red" d="m 6.6997517,6.8876631 2.7375119,-4.182929 2.0310254,0.3340935 1.813766,-0.7881252 0.570795,-1.80801948 5.94373,0.0275436 0.535563,1.79657362 1.875604,0.7688077 1.954721,-0.362232 2.757081,4.2186938 -0.48185,0.8151061 -9.649494,3.3827083 -9.5836766,-3.3918883 z"/><path fill="#d40000" d="m 7.9524349,8.9901465 -0.4027995,2.7963635 0.6067097,2.574856 4.4831939,1.974889 4.133797,-1.564389 4.304426,1.572758 4.412632,-2.049813 0.579124,-2.478293 -0.366972,-2.8305736 -8.901823,3.0021416 z"/><path fill="#f9f9f9" d="M14.386345 12.676919a2.4054431 2.1265936 0 0 1-1.87836 1.690759 2.4054431 2.1265936 0 0 1-2.481745-.89579 2.4054431 2.1265936 0 0 1-.0031-2.369872M19.344065 12.667613a2.4054431 2.1265936 0 0 0 1.878359 1.69076 2.4054431 2.1265936 0 0 0 2.481746-.895791 2.4054431 2.1265936 0 0 0 .0031-2.369871"/><path fill="#d40000" d="M5.7053499 13.893268 6.7945021 12.8294 7.3369046 14.977146 12.095821 17.153469 12.355924 21.593264 7.3170906 19.43045ZM13.022706 17.225391l3.778088-1.531793 3.793589 1.47842-.243127 4.659444-3.523151 1.471273-3.542239-1.440571zM21.559184 17.194143l-.243357 4.279987 5.004762-2.075302 1.593457-5.522627-1.100206-1.081225-.51776 2.133789z"/><text xml:space="preserve" x="41.364" y="22.227" fill="#999" stroke-width=".39" font-family="Futura" font-size="10.393" font-weight="700" style="-inkscape-font-specification:&quot;Futura, Bold&quot;;font-variant-ligatures:normal;font-variant-caps:normal;font-variant-numeric:normal;font-variant-east-asian:normal"><tspan x="41.364" y="22.227">ENGINE</tspan></text><text xml:space="preserve" x="33.915" y="13.775" fill="#999" stroke-width=".613" font-family="Futura" font-size="16.359" font-weight="700" style="-inkscape-font-specification:&quot;Futura, Bold&quot;;font-variant-ligatures:normal;font-variant-caps:normal;font-variant-numeric:normal;font-variant-east-asian:normal"><tspan x="33.915" y="13.775">REDOT</tspan></text></svg>