<?xml version="1.0" encoding="UTF-8" standalone="no"?>
<svg
   width="100"
   height="24"
   stroke-linejoin="round"
   version="1.1"
   id="svg7"
   sodipodi:docname="IconSVG.svg"
   inkscape:export-filename="IconSVG.svg"
   inkscape:export-xdpi="90.454147"
   inkscape:export-ydpi="90.454147"
   inkscape:version="1.3.2 (091e20ef0f, 2023-11-25, custom)"
   xmlns:inkscape="http://www.inkscape.org/namespaces/inkscape"
   xmlns:sodipodi="http://sodipodi.sourceforge.net/DTD/sodipodi-0.dtd"
   xmlns="http://www.w3.org/2000/svg"
   xmlns:svg="http://www.w3.org/2000/svg">
  <sodipodi:namedview
     id="namedview1"
     pagecolor="#ffffff"
     bordercolor="#000000"
     borderopacity="0.25"
     inkscape:showpageshadow="2"
     inkscape:pageopacity="0.0"
     inkscape:pagecheckerboard="0"
     inkscape:deskcolor="#d1d1d1"
     inkscape:zoom="6.9529276"
     inkscape:cx="56.666777"
     inkscape:cy="23.731011"
     inkscape:window-width="1920"
     inkscape:window-height="1012"
     inkscape:window-x="0"
     inkscape:window-y="40"
     inkscape:window-maximized="1"
     inkscape:current-layer="svg7" />
  <defs
     id="defs7" />
  <path
     style="display:inline;fill:#ff0000;stroke-width:0.768075"
     d="m 6.6997517,6.8876631 2.7375119,-4.182929 2.0310254,0.3340935 1.813766,-0.7881252 0.570795,-1.80801948 5.94373,0.0275436 0.535563,1.79657362 1.875604,0.7688077 1.954721,-0.362232 2.757081,4.2186938 -0.48185,0.8151061 -9.649494,3.3827083 -9.5836766,-3.3918883 z"
     id="path3-3" />
  <path
     style="display:inline;fill:#d40000;stroke-width:0.768075"
     d="m 7.9524349,8.9901465 -0.4027995,2.7963635 0.6067097,2.574856 4.4831939,1.974889 4.133797,-1.564389 4.304426,1.572758 4.412632,-2.049813 0.579124,-2.478293 -0.366972,-2.8305736 -8.901823,3.0021416 z"
     id="path4-6" />
  <path
     style="display:inline;fill:#f9f9f9;stroke-width:0.768075"
     id="path5"
     d="m 14.386345,12.676919 a 2.4054431,2.1265936 0 0 1 -1.87836,1.690759 2.4054431,2.1265936 0 0 1 -2.481745,-0.89579 2.4054431,2.1265936 0 0 1 -0.0031,-2.369872" />
  <path
     style="display:inline;fill:#f9f9f9;stroke-width:0.768075"
     id="path6"
     d="m 19.344065,12.667613 a 2.4054431,2.1265936 0 0 0 1.878359,1.69076 2.4054431,2.1265936 0 0 0 2.481746,-0.895791 2.4054431,2.1265936 0 0 0 0.0031,-2.369871" />
  <path
     style="display:inline;fill:#d40000;stroke-width:0.768075"
     d="M 5.7053499,13.893268 6.7945021,12.8294 7.3369046,14.977146 12.095821,17.153469 12.355924,21.593264 7.3170906,19.43045 Z"
     id="path7" />
  <path
     style="display:inline;fill:#d40000;stroke-width:0.768075"
     d="m 13.022706,17.225391 3.778088,-1.531793 3.793589,1.47842 -0.243127,4.659444 -3.523151,1.471273 -3.542239,-1.440571 z"
     id="path8" />
  <path
     style="display:inline;fill:#d40000;stroke-width:0.768075"
     d="m 21.559184,17.194143 -0.243357,4.279987 5.004762,-2.075302 1.593457,-5.522627 -1.100206,-1.081225 -0.51776,2.133789 z"
     id="path9" />
  <text
     xml:space="preserve"
     style="font-style:normal;font-variant:normal;font-weight:bold;font-stretch:normal;font-size:10.3933px;font-family:Futura;-inkscape-font-specification:'Futura, Bold';font-variant-ligatures:normal;font-variant-caps:normal;font-variant-numeric:normal;font-variant-east-asian:normal;fill:#999999;stroke-width:0.389746"
     x="41.364468"
     y="22.226604"
     id="text8"><tspan
       id="tspan8"
       x="41.364468"
       y="22.226604"
       style="fill:#999999;stroke-width:0.389746">ENGINE</tspan></text>
  <text
     xml:space="preserve"
     style="font-style:normal;font-variant:normal;font-weight:bold;font-stretch:normal;font-size:16.3589px;font-family:Futura;-inkscape-font-specification:'Futura, Bold';font-variant-ligatures:normal;font-variant-caps:normal;font-variant-numeric:normal;font-variant-east-asian:normal;fill:#999999;stroke-width:0.613458"
     x="33.914829"
     y="13.774741"
     id="text9"><tspan
       id="tspan9"
       x="33.914829"
       y="13.774741"
       style="fill:#999999;stroke-width:0.613458">REDOT</tspan></text>
</svg>
