<?xml version="1.0" encoding="UTF-8" standalone="no"?>
<svg
   width="1024"
   height="414"
   version="1.1"
   id="svg8"
   sodipodi:docname="logo.svg"
   inkscape:version="1.3.2 (091e20e, 2023-11-25)"
   xmlns:inkscape="http://www.inkscape.org/namespaces/inkscape"
   xmlns:sodipodi="http://sodipodi.sourceforge.net/DTD/sodipodi-0.dtd"
   xmlns:xlink="http://www.w3.org/1999/xlink"
   xmlns="http://www.w3.org/2000/svg"
   xmlns:svg="http://www.w3.org/2000/svg">
  <defs
     id="defs8">
    <linearGradient
       inkscape:collect="always"
       xlink:href="#linearGradient51"
       id="linearGradient14"
       gradientUnits="userSpaceOnUse"
       gradientTransform="matrix(3.6579782,0,0,3.656986,-1573.3074,-1858.7276)"
       x1="455.85126"
       y1="527.87988"
       x2="524.11212"
       y2="597.42651" />
    <linearGradient
       id="linearGradient51"
       inkscape:collect="always">
      <stop
         style="stop-color:#ff1300;stop-opacity:1"
         offset="0"
         id="stop51" />
      <stop
         style="stop-color:#ff6e01;stop-opacity:1"
         offset="1"
         id="stop52" />
    </linearGradient>
  </defs>
  <sodipodi:namedview
     id="namedview8"
     pagecolor="#ffffff"
     bordercolor="#000000"
     borderopacity="0.25"
     inkscape:showpageshadow="2"
     inkscape:pageopacity="0.0"
     inkscape:pagecheckerboard="0"
     inkscape:deskcolor="#d1d1d1"
     inkscape:zoom="0.56445312"
     inkscape:cx="511.11419"
     inkscape:cy="207.28028"
     inkscape:window-width="1312"
     inkscape:window-height="449"
     inkscape:window-x="92"
     inkscape:window-y="277"
     inkscape:window-maximized="0"
     inkscape:current-layer="svg8" />
  <path
     id="path2-4"
     style="font-variation-settings:normal;vector-effect:none;fill:url(#linearGradient14);fill-opacity:1;stroke-width:0.466614;stroke-linecap:butt;stroke-linejoin:miter;stroke-miterlimit:4;stroke-dasharray:none;stroke-dashoffset:0;stroke-opacity:1;-inkscape-stroke:none;stop-color:#000000"
     d="m 168.09063,44.474048 -8.28902,26.185209 c -9.02877,3.904391 -18.05582,7.808139 -27.08461,11.71519 -9.57833,-2.01729 -19.18289,-4.353455 -28.89036,-5.524087 -1.53531,1.724292 -40.304121,61.34802 -40.293669,61.96409 1.786585,4.37373 4.85375,8.13588 7.174174,12.2288 l 141.023485,49.53116 141.02173,-49.53116 c 2.32045,-4.09292 5.38937,-7.85507 7.17418,-12.2288 0,-0.61619 -38.76008,-60.239914 -40.29541,-61.96409 -9.70748,1.171515 -19.31025,3.506797 -28.88864,5.524087 -9.02702,-3.907051 -18.05753,-7.810799 -27.08459,-11.71519 L 255.36714,44.474048 Z M 81.449242,169.0577 c -0.174459,-0.0634 -0.523387,0.20539 -0.523387,0.29414 -1.692347,13.84889 -5.017736,41.55578 -5.017736,41.55578 l 8.59262,37.14386 65.007221,29.53123 62.23841,-23.27256 62.24016,23.27256 65.00724,-29.53123 8.5926,-37.14386 c 0,0 -3.31841,-27.70689 -5.01773,-41.55578 0,-0.1141 -0.62811,-0.54517 -0.62811,-0.1141 -42.55479,15.12637 -86.94674,29.77514 -130.18372,44.69513 -43.23869,-14.91999 -87.63065,-29.56888 -130.187179,-44.69513 0,-0.10157 0,-0.1623 -0.174459,-0.18132 z m 30.549558,31.54498 60.85486,22.46463 a 33.143528,33.13454 0 0 1 -1.58768,6.45523 33.143528,33.13454 0 0 1 -42.57396,19.60611 33.143528,33.13454 0 0 1 -19.61209,-42.56171 33.143528,33.13454 0 0 1 2.91711,-5.96426 z m 199.46192,0 a 33.143528,33.13454 0 0 1 2.91713,5.96426 33.143528,33.13454 0 0 1 -19.61207,42.56171 33.143528,33.13454 0 0 1 -42.57398,-19.60611 33.143528,33.13454 0 0 1 -1.58768,-6.45523 z m -246.81637,25.06718 -15.609748,15.4648 23.387593,81.98403 73.913885,30.31097 -3.97615,-63.77625 -70.098251,-32.61124 z m 294.17084,0 -7.61738,31.37217 -70.09646,32.61138 -3.9779,63.77625 73.91563,-30.31097 23.38761,-81.98403 z m -147.08456,42.22852 -55.42889,21.931 3.3638,68.895 52.06334,21.20541 52.06336,-21.20541 3.36553,-68.895 z"
     inkscape:label="Symbol" />
  <text
     xml:space="preserve"
     style="font-style:normal;font-variant:normal;font-weight:bold;font-stretch:normal;font-size:82.497px;font-family:Futura;-inkscape-font-specification:'Futura, Bold';font-variant-ligatures:normal;font-variant-caps:normal;font-variant-numeric:normal;font-variant-east-asian:normal;fill:#4d4d4d;stroke-width:0.311032"
     x="486.80032"
     y="329.87372"
     id="text8"><tspan
       sodipodi:role="line"
       id="tspan8"
       x="486.80032"
       y="329.87372"
       style="font-style:normal;font-variant:normal;font-weight:bold;font-stretch:normal;font-size:82.497px;font-family:Futura;-inkscape-font-specification:'Futura, Bold';font-variant-ligatures:normal;font-variant-caps:normal;font-variant-numeric:normal;font-variant-east-asian:normal;fill:#4d4d4d;stroke-width:0.311032">ENGINE</tspan></text>
  <text
     xml:space="preserve"
     style="font-style:normal;font-variant:normal;font-weight:bold;font-stretch:normal;font-size:157.69px;font-family:Futura;-inkscape-font-specification:'Futura, Bold';font-variant-ligatures:normal;font-variant-caps:normal;font-variant-numeric:normal;font-variant-east-asian:normal;fill:#4d4d4d;stroke-width:0.953588"
     x="399.24146"
     y="225.70456"
     id="text9"><tspan
       sodipodi:role="line"
       id="tspan9"
       x="399.24146"
       y="225.70456"
       style="font-style:normal;font-variant:normal;font-weight:bold;font-stretch:normal;font-size:157.69px;font-family:Futura;-inkscape-font-specification:'Futura, Bold';font-variant-ligatures:normal;font-variant-caps:normal;font-variant-numeric:normal;font-variant-east-asian:normal;fill:#4d4d4d;stroke-width:0.953588">REDOT</tspan></text>
</svg>
