<?xml version="1.0" encoding="utf-8"?>
<!-- Generator: Adobe Illustrator 28.2.0, SVG Export Plug-In . SVG Version: 6.00 Build 0)  -->
<svg version="1.1"
	 id="svg11" xmlns:svg="http://www.w3.org/2000/svg" xmlns:inkscape="http://www.inkscape.org/namespaces/inkscape" xmlns:sodipodi="http://sodipodi.sourceforge.net/DTD/sodipodi-0.dtd"
	 xmlns="http://www.w3.org/2000/svg" xmlns:xlink="http://www.w3.org/1999/xlink" x="0px" y="0px" viewBox="0 0 1024 414"
	 style="enable-background:new 0 0 1024 414;" xml:space="preserve">
<style type="text/css">
	.st0{fill:url(#path2-4_00000114774309596167427170000011254706821165255870_);}
	.st1{fill:#4D4D4D;}
	.st2{font-family:'Arial-BoldMT';}
	.st3{font-size:82.497px;}
	.st4{font-size:157.69px;}
</style>
<linearGradient id="path2-4_00000106828010876857012880000016217361937684118964_" gradientUnits="userSpaceOnUse" x1="133.9927" y1="121.3655" x2="202.2536" y2="51.8189" gradientTransform="matrix(3.4787 0 0 -3.4778 -372.1009 508.8312)">
	<stop  offset="0" style="stop-color:#FF1300"/>
	<stop  offset="1" style="stop-color:#FF6E01"/>
</linearGradient>
<path id="path2-4" inkscape:label="Symbol" style="fill:url(#path2-4_00000106828010876857012880000016217361937684118964_);" d="
	M176,49.4l-7.9,24.9c-8.6,3.7-17.2,7.4-25.8,11.1c-9.1-1.9-18.2-4.1-27.5-5.3c-1.5,1.6-38.3,58.3-38.3,58.9
	c1.7,4.2,4.6,7.7,6.8,11.6l134.1,47.1l134.1-47.1c2.2-3.9,5.1-7.5,6.8-11.6c0-0.6-36.9-57.3-38.3-58.9c-9.2,1.1-18.4,3.3-27.5,5.3
	c-8.6-3.7-17.2-7.4-25.8-11.1L259,49.4H176z M93.6,167.9c-0.2-0.1-0.5,0.2-0.5,0.3c-1.6,13.2-4.8,39.5-4.8,39.5l8.2,35.3l61.8,28.1
	l59.2-22.1l59.2,22.1l61.8-28.1l8.2-35.3c0,0-3.2-26.3-4.8-39.5c0-0.1-0.6-0.5-0.6-0.1c-40.5,14.4-82.7,28.3-123.8,42.5
	c-41.1-14.2-83.3-28.1-123.8-42.5C93.7,167.9,93.7,167.9,93.6,167.9L93.6,167.9z M122.6,197.9l57.9,21.4c-0.3,2.1-0.8,4.1-1.5,6.1
	c-6,16.3-24.2,24.7-40.5,18.6c0,0,0,0,0,0c-16.3-6-24.7-24.1-18.7-40.5c0,0,0,0,0,0C120.6,201.6,121.5,199.7,122.6,197.9
	L122.6,197.9z M312.3,197.9c1.1,1.8,2,3.7,2.8,5.7c6,16.3-2.3,34.4-18.6,40.5c0,0,0,0,0,0c-16.3,6-34.5-2.3-40.5-18.6c0,0,0,0,0,0
	c-0.7-2-1.2-4-1.5-6.1L312.3,197.9z M77.6,221.7l-14.8,14.7l22.2,78l70.3,28.8l-3.8-60.7l-66.7-31L77.6,221.7z M357.4,221.7
	l-7.2,29.8l-66.7,31l-3.8,60.7l70.3-28.8l22.2-78L357.4,221.7z M217.5,261.9l-52.7,20.9l3.2,65.5l49.5,20.2l49.5-20.2l3.2-65.5
	L217.5,261.9z"/>
<text transform="matrix(1 0 0 1 513.3401 358.1678)" class="st1 st2 st3">ENGINE</text>
<text transform="matrix(1 0 0 1 425.7812 239.8257)" class="st1 st2 st4">REDOT</text>
</svg>
